<svg width="177" height="196" viewBox="0 0 177 196" fill="none" xmlns="http://www.w3.org/2000/svg">
<path d="M165.894 96.5034C165.894 86.4966 157.771 78.3838 147.753 78.3838C147.108 78.3838 146.473 78.4183 145.846 78.4845L170.762 5.08182H64.876L89.7578 78.4203C89.3907 78.3972 89.0229 78.3853 88.655 78.3845C78.6365 78.3845 70.5143 86.4959 70.5143 96.5041C70.5143 104.593 75.8218 111.441 83.1465 113.771C79.278 120.464 74.4097 126.494 68.8825 131.702C61.3666 138.784 52.7651 144.154 43.462 147.463C32.3856 141.78 27.1554 129.14 31.8746 118.058C32.4077 116.806 32.9519 115.538 33.4718 114.275C41.496 112.404 47.4762 105.219 47.4762 96.6338C47.4762 86.6262 39.3539 78.5141 29.3348 78.5141C19.3156 78.5141 11.194 86.6262 11.194 96.6338C11.194 102.77 14.2504 108.191 18.9234 111.469C14.4334 121.68 7.83313 132.367 5.77667 144.752C3.3121 159.596 5.76839 175.352 18.6216 184.251C48.5555 204.973 81.0486 171.404 115.308 162.965C127.724 159.908 141.354 160.4 152.293 154.072C160.507 149.32 165.923 141.444 167.46 132.602C168.979 123.867 166.765 115.17 161.674 108.118C164.406 104.863 165.9 100.75 165.894 96.5034" fill="#99425B"/>
<path d="M163.095 131.845C161.761 139.521 157.014 146.226 150.072 150.243C143.601 153.986 135.847 155.103 127.636 156.286C123.238 156.919 118.69 157.575 114.247 158.669C102.5 161.562 91.1209 167.208 80.1177 172.667C58.096 183.593 39.0783 193.027 21.1461 180.613C8.0105 171.52 8.61681 154.696 10.1471 145.477C11.5655 136.935 15.4001 129.068 19.1076 121.461C19.7393 120.168 20.3658 118.873 20.9873 117.575C22.8562 118.321 24.8173 118.813 26.8176 119.036C23.0431 131.478 28.979 145.007 41.4372 151.399L43.1429 152.275L44.948 151.633C54.7973 148.129 63.8732 142.507 71.9229 134.921C77.1262 130.017 81.6003 124.593 85.2775 118.796C86.3954 118.964 87.5244 119.049 88.6549 119.049C100.09 119.049 109.559 110.511 111.024 99.4831C115.704 99.312 120.676 99.3106 125.383 99.4817C126.847 110.511 136.317 119.05 147.752 119.05C152.534 119.05 156.968 117.553 160.622 115.011C163.158 120.197 164.105 126.032 163.095 131.845V131.845ZM29.3354 82.9395C36.8955 82.9395 43.0455 89.0831 43.0455 96.6344C43.0455 99.3465 42.2486 101.876 40.8807 104.006C38.6018 107.556 34.7279 109.989 30.2773 110.293C29.9658 110.313 29.6516 110.329 29.3354 110.329C27.6504 110.329 26.0366 110.022 24.5443 109.464C21.5389 108.336 19.0222 106.194 17.4282 103.41C16.2446 101.348 15.6227 99.0117 15.6245 96.6344C15.6245 89.0831 21.7752 82.9395 29.3354 82.9395V82.9395ZM74.9455 96.5041C74.9455 89.6432 80.0231 83.9466 86.6206 82.9616C87.2849 82.8616 87.9644 82.8099 88.6556 82.8099C93.051 82.8099 96.9643 84.8894 99.4738 88.1119C100.102 88.9154 100.639 89.7864 101.074 90.7088C101.927 92.5221 102.368 94.5009 102.366 96.5041C102.366 97.5987 102.233 98.663 101.989 99.6838C100.653 105.271 95.8836 109.542 90.0388 110.129C89.5844 110.175 89.1231 110.198 88.6556 110.198C86.0185 110.2 83.4374 109.438 81.2253 108.004C77.4508 105.562 74.9455 101.321 74.9455 96.5041V96.5041ZM132.168 80.2192C129.184 83.0637 127.037 86.6696 125.959 90.6461C120.791 90.4558 115.618 90.4558 110.451 90.6461C109.291 86.3476 106.886 82.5554 103.651 79.675L117.838 51.0216L132.168 80.2192ZM71.0556 9.50859H164.582L142.492 74.5826C141.541 74.81 140.607 75.0991 139.694 75.4482L117.873 30.9852L95.9893 75.1827C95.0353 74.8556 94.0603 74.5931 93.071 74.3971L71.0556 9.50859ZM161.462 96.5048C161.462 97.8774 161.257 99.203 160.879 100.455C159.983 103.402 158.122 105.964 155.595 107.728C153.297 109.339 150.559 110.201 147.752 110.199C141.422 110.199 136.082 105.89 134.512 100.055C134.2 98.8972 134.042 97.7036 134.042 96.5048C134.042 94.6328 134.42 92.8477 135.104 91.2213C135.457 90.3891 135.891 89.5939 136.401 88.8472C138.868 85.2095 143.032 82.8106 147.752 82.8106C148.185 82.8106 148.612 82.8326 149.035 82.8726C155.996 83.5203 161.463 89.3852 161.463 96.5048H161.462ZM170.324 96.5048C170.324 85.4978 162.384 76.3139 151.927 74.3522L176.942 0.656403H58.6961L83.7506 74.5012C73.6562 76.7449 66.0843 85.7551 66.0843 96.5041C66.0843 104.575 70.3547 111.665 76.7547 115.649C73.6762 120.23 70.026 124.541 65.8426 128.483C59.2078 134.735 51.8169 139.476 43.8486 142.596C35.8224 137.56 32.4297 128.063 35.9529 119.79L36.2291 119.142L36.747 117.925C45.5626 114.853 51.9067 106.473 51.9067 96.6344C51.9067 84.2025 41.7811 74.0887 29.3354 74.0887C16.8896 74.0887 6.76268 84.2025 6.76268 96.6344C6.76268 102.909 9.34534 108.591 13.5011 112.683C12.726 114.323 11.9392 115.958 11.1408 117.587C7.34067 125.382 3.0344 134.217 1.4054 144.028C-1.82913 163.513 3.38866 179.09 16.0982 187.888C23.8103 193.226 31.6425 195.326 39.5237 195.326C54.3636 195.326 69.3762 187.879 84.0593 180.594C94.6337 175.348 105.569 169.923 116.369 167.262C120.388 166.272 124.523 165.677 128.902 165.046C137.584 163.795 146.561 162.502 154.513 157.902C163.731 152.569 170.041 143.623 171.825 133.359C173.357 124.548 171.514 115.722 167.018 108.237C169.185 104.706 170.329 100.645 170.324 96.5041V96.5048Z" fill="white"/>
</svg>
