<svg width="185" height="47" viewBox="0 0 185 47" fill="none" xmlns="http://www.w3.org/2000/svg">
<path d="M27.4 31L27.4 16.6L36.8 16.6L36.8 19.14L30.12 19.14L30.12 22.22L35.6 22.22L35.6 24.76L30.12 24.76L30.12 28.46L36.8 28.46L36.8 31L27.4 31ZM43.0769 31.3C42.0835 31.3 41.2135 31.05 40.4669 30.55C39.7202 30.05 39.1369 29.37 38.7169 28.51C38.3035 27.65 38.0969 26.68 38.0969 25.6C38.0969 24.5 38.3069 23.5233 38.7269 22.67C39.1535 21.81 39.7502 21.1333 40.5169 20.64C41.2835 20.1467 42.1835 19.9 43.2169 19.9C44.2435 19.9 45.1069 20.15 45.8069 20.65C46.5069 21.15 47.0369 21.83 47.3969 22.69C47.7569 23.55 47.9369 24.52 47.9369 25.6C47.9369 26.68 47.7535 27.65 47.3869 28.51C47.0269 29.37 46.4869 30.05 45.7669 30.55C45.0469 31.05 44.1502 31.3 43.0769 31.3ZM43.5169 28.88C44.1235 28.88 44.6069 28.7433 44.9669 28.47C45.3335 28.1967 45.5969 27.8133 45.7569 27.32C45.9169 26.8267 45.9969 26.2533 45.9969 25.6C45.9969 24.9467 45.9169 24.3733 45.7569 23.88C45.5969 23.3867 45.3402 23.0033 44.9869 22.73C44.6402 22.4567 44.1835 22.32 43.6169 22.32C43.0102 22.32 42.5102 22.47 42.1169 22.77C41.7302 23.0633 41.4435 23.46 41.2569 23.96C41.0702 24.4533 40.9769 25 40.9769 25.6C40.9769 26.2067 41.0669 26.76 41.2469 27.26C41.4269 27.7533 41.7035 28.1467 42.0769 28.44C42.4502 28.7333 42.9302 28.88 43.5169 28.88ZM45.9969 31L45.9969 23.6L45.6569 23.6L45.6569 16.6L48.3969 16.6L48.3969 31L45.9969 31ZM55.7169 31.3C54.6102 31.3 53.6335 31.0633 52.7869 30.59C51.9469 30.11 51.2869 29.4533 50.8069 28.62C50.3335 27.78 50.0969 26.82 50.0969 25.74C50.0969 24.56 50.3302 23.5333 50.7969 22.66C51.2635 21.7867 51.9069 21.11 52.7269 20.63C53.5469 20.1433 54.4902 19.9 55.5569 19.9C56.6902 19.9 57.6535 20.1667 58.4469 20.7C59.2402 21.2333 59.8269 21.9833 60.2069 22.95C60.5869 23.9167 60.7202 25.0533 60.6069 26.36L57.9169 26.36L57.9169 25.36C57.9169 24.26 57.7402 23.47 57.3869 22.99C57.0402 22.5033 56.4702 22.26 55.6769 22.26C54.7502 22.26 54.0669 22.5433 53.6269 23.11C53.1935 23.67 52.9769 24.5 52.9769 25.6C52.9769 26.6067 53.1935 27.3867 53.6269 27.94C54.0669 28.4867 54.7102 28.76 55.5569 28.76C56.0902 28.76 56.5469 28.6433 56.9269 28.41C57.3069 28.1767 57.5969 27.84 57.7969 27.4L60.5169 28.18C60.1102 29.1667 59.4669 29.9333 58.5869 30.48C57.7135 31.0267 56.7569 31.3 55.7169 31.3ZM52.1369 26.36L52.1369 24.34L59.2969 24.34L59.2969 26.36L52.1369 26.36ZM62.3648 31L62.3648 20.2L64.7648 20.2L64.7648 22.84L64.5048 22.5C64.6448 22.1267 64.8315 21.7867 65.0648 21.48C65.2982 21.1733 65.5848 20.92 65.9248 20.72C66.1848 20.56 66.4682 20.4367 66.7748 20.35C67.0815 20.2567 67.3982 20.2 67.7248 20.18C68.0515 20.1533 68.3782 20.16 68.7048 20.2L68.7048 22.74C68.4048 22.6467 68.0548 22.6167 67.6548 22.65C67.2615 22.6767 66.9048 22.7667 66.5848 22.92C66.2648 23.0667 65.9948 23.2633 65.7748 23.51C65.5548 23.75 65.3882 24.0367 65.2748 24.37C65.1615 24.6967 65.1048 25.0667 65.1048 25.48L65.1048 31L62.3648 31ZM73.9364 31.3C72.5764 31.3 71.4764 30.9933 70.6364 30.38C69.8031 29.76 69.2964 28.8867 69.1164 27.76L71.8964 27.34C72.0097 27.8467 72.2597 28.2433 72.6464 28.53C73.0397 28.8167 73.5364 28.96 74.1364 28.96C74.6297 28.96 75.0097 28.8667 75.2764 28.68C75.5431 28.4867 75.6764 28.22 75.6764 27.88C75.6764 27.6667 75.6231 27.4967 75.5164 27.37C75.4097 27.2367 75.1697 27.1067 74.7964 26.98C74.4297 26.8533 73.8564 26.6867 73.0764 26.48C72.1964 26.2533 71.4931 26 70.9664 25.72C70.4397 25.44 70.0597 25.1067 69.8264 24.72C69.5931 24.3267 69.4764 23.8533 69.4764 23.3C69.4764 22.6067 69.6531 22.0067 70.0064 21.5C70.3597 20.9867 70.8564 20.5933 71.4964 20.32C72.1431 20.04 72.9031 19.9 73.7764 19.9C74.6231 19.9 75.3731 20.03 76.0264 20.29C76.6797 20.55 77.2064 20.92 77.6064 21.4C78.0131 21.88 78.2631 22.4467 78.3564 23.1L75.5764 23.6C75.5297 23.2 75.3564 22.8833 75.0564 22.65C74.7564 22.4167 74.3497 22.28 73.8364 22.24C73.3364 22.2067 72.9331 22.2733 72.6264 22.44C72.3264 22.6067 72.1764 22.8467 72.1764 23.16C72.1764 23.3467 72.2397 23.5033 72.3664 23.63C72.4997 23.7567 72.7697 23.8867 73.1764 24.02C73.5897 24.1533 74.2164 24.3267 75.0564 24.54C75.8764 24.7533 76.5331 25.0033 77.0264 25.29C77.5264 25.57 77.8897 25.91 78.1164 26.31C78.3431 26.7033 78.4564 27.18 78.4564 27.74C78.4564 28.8467 78.0564 29.7167 77.2564 30.35C76.4564 30.9833 75.3497 31.3 73.9364 31.3ZM85.0139 31.3C83.9272 31.3 82.9739 31.0567 82.1539 30.57C81.3339 30.0833 80.6939 29.4133 80.2339 28.56C79.7806 27.7 79.5539 26.7133 79.5539 25.6C79.5539 24.4733 79.7872 23.4833 80.2539 22.63C80.7206 21.77 81.3639 21.1 82.1839 20.62C83.0039 20.14 83.9472 19.9 85.0139 19.9C86.1006 19.9 87.0539 20.1433 87.8739 20.63C88.7006 21.1167 89.3439 21.79 89.8039 22.65C90.2639 23.5033 90.4939 24.4867 90.4939 25.6C90.4939 26.72 90.2606 27.71 89.7939 28.57C89.3339 29.4233 88.6906 30.0933 87.8639 30.58C87.0439 31.06 86.0939 31.3 85.0139 31.3ZM85.0139 28.76C85.8872 28.76 86.5372 28.4667 86.9639 27.88C87.3972 27.2867 87.6139 26.5267 87.6139 25.6C87.6139 24.64 87.3939 23.8733 86.9539 23.3C86.5206 22.7267 85.8739 22.44 85.0139 22.44C84.4206 22.44 83.9339 22.5733 83.5539 22.84C83.1739 23.1067 82.8906 23.4767 82.7039 23.95C82.5239 24.4233 82.4339 24.9733 82.4339 25.6C82.4339 26.5667 82.6506 27.3367 83.0839 27.91C83.5239 28.4767 84.1672 28.76 85.0139 28.76ZM99.553 31L99.553 25.9C99.553 25.6533 99.5396 25.34 99.513 24.96C99.4863 24.5733 99.403 24.1867 99.263 23.8C99.123 23.4133 98.893 23.09 98.573 22.83C98.2596 22.57 97.813 22.44 97.233 22.44C96.9996 22.44 96.7496 22.4767 96.483 22.55C96.2163 22.6233 95.9663 22.7667 95.733 22.98C95.4996 23.1867 95.3063 23.4933 95.153 23.9C95.0063 24.3067 94.933 24.8467 94.933 25.52L93.373 24.78C93.373 23.9267 93.5463 23.1267 93.893 22.38C94.2396 21.6333 94.7596 21.03 95.453 20.57C96.153 20.11 97.033 19.88 98.093 19.88C98.9396 19.88 99.6296 20.0233 100.163 20.31C100.696 20.5967 101.11 20.96 101.403 21.4C101.703 21.84 101.916 22.3 102.043 22.78C102.17 23.2533 102.246 23.6867 102.273 24.08C102.3 24.4733 102.313 24.76 102.313 24.94L102.313 31L99.553 31ZM92.173 31L92.173 20.2L94.593 20.2L94.593 23.78L94.933 23.78L94.933 31L92.173 31ZM104.848 31L104.848 28.28L107.568 28.28L107.568 31L104.848 31ZM110.314 31L110.314 16.6L114.974 16.6C115.087 16.6 115.321 16.6033 115.674 16.61C116.027 16.6167 116.367 16.64 116.694 16.68C117.854 16.82 118.837 17.2233 119.644 17.89C120.451 18.5567 121.064 19.4033 121.484 20.43C121.904 21.4567 122.114 22.58 122.114 23.8C122.114 25.02 121.904 26.1433 121.484 27.17C121.064 28.1967 120.451 29.0433 119.644 29.71C118.837 30.3767 117.854 30.78 116.694 30.92C116.367 30.96 116.027 30.9833 115.674 30.99C115.321 30.9967 115.087 31 114.974 31L110.314 31ZM113.074 28.44L114.974 28.44C115.154 28.44 115.397 28.4367 115.704 28.43C116.011 28.4167 116.287 28.3867 116.534 28.34C117.161 28.2133 117.671 27.92 118.064 27.46C118.464 27 118.757 26.4467 118.944 25.8C119.137 25.1533 119.234 24.4867 119.234 23.8C119.234 23.08 119.134 22.3967 118.934 21.75C118.741 21.1033 118.444 20.5567 118.044 20.11C117.644 19.6633 117.141 19.38 116.534 19.26C116.287 19.2067 116.011 19.1767 115.704 19.17C115.397 19.1633 115.154 19.16 114.974 19.16L113.074 19.16L113.074 28.44ZM124.013 31L124.013 16.6L133.413 16.6L133.413 19.14L126.733 19.14L126.733 22.22L132.213 22.22L132.213 24.76L126.733 24.76L126.733 28.46L133.413 28.46L133.413 31L124.013 31ZM138.41 31L134.01 16.6L136.81 16.6L140.41 28.44L144.07 16.6L146.87 16.6L142.47 31L138.41 31Z" fill="#DEDEDE"/>
<path d="M21.35 19.43C20.1833 19.5467 18.9467 19.8733 17.64 20.41C16.3567 20.9233 14.9217 21.5883 13.335 22.405C11.7483 23.2217 10.5817 23.7817 9.835 24.085C10.955 24.6917 12.5767 25.3683 14.7 26.115C16.8233 26.8383 18.55 27.48 19.88 28.04C21.21 28.5767 21.875 29.0667 21.875 29.51C21.875 30.2333 21.49 31.0267 20.72 31.89C19.9733 32.73 19.1683 33.3717 18.305 33.815C17.5583 33.0217 16.52 32.275 15.19 31.575C13.86 30.875 12.18 30.0467 10.15 29.09C8.14333 28.1333 6.69667 27.4217 5.81 26.955C4.92333 26.4883 4.34 25.8467 4.06 25.03C3.78 24.2133 3.62833 23.1983 3.605 21.985C4.70167 21.915 6.055 21.46 7.665 20.62C9.275 19.78 10.7567 18.87 12.11 17.89C15.68 15.3233 17.9083 14.04 18.795 14.04C19.495 14.04 20.09 14.6117 20.58 15.755C21.0933 16.8983 21.35 18.1233 21.35 19.43Z" fill="#DEDEDE"/>
<path d="M151.335 35.195C150.635 37.715 149.34 38.975 147.45 38.975C146.307 38.975 145.257 38.6017 144.3 37.855C145.257 36.9683 146.225 34.7983 147.205 31.345C148.208 27.8683 149.363 23.3533 150.67 17.8C151.977 12.2467 152.677 9.30667 152.77 8.98C153.143 7.48667 154.065 6.74 155.535 6.74C157.028 6.74 158.382 7.28833 159.595 8.385C158.475 10.0417 157.518 12.2583 156.725 15.035C155.955 17.7883 155.033 21.2417 153.96 25.395C152.887 29.5483 152.012 32.815 151.335 35.195ZM162.541 27.565C163.708 27.4483 164.933 27.1333 166.216 26.62C167.523 26.0833 168.969 25.4067 170.556 24.59C172.143 23.7733 173.309 23.2133 174.056 22.91C172.936 22.3033 171.314 21.6383 169.191 20.915C167.068 20.1683 165.341 19.5267 164.011 18.99C162.681 18.43 162.016 17.9283 162.016 17.485C162.016 16.7617 162.389 15.98 163.136 15.14C163.906 14.2767 164.723 13.6233 165.586 13.18C166.333 13.9733 167.371 14.72 168.701 15.42C170.031 16.12 171.699 16.9483 173.706 17.905C175.736 18.8617 177.194 19.5733 178.081 20.04C178.968 20.5067 179.551 21.1483 179.831 21.965C180.111 22.7817 180.263 23.7967 180.286 25.01C179.189 25.08 177.836 25.535 176.226 26.375C174.616 27.215 173.134 28.1133 171.781 29.07C168.211 31.66 165.983 32.955 165.096 32.955C164.396 32.955 163.789 32.3833 163.276 31.24C162.786 30.0967 162.541 28.8717 162.541 27.565Z" fill="#DEDEDE"/>
</svg>
